<svg xmlns="http://www.w3.org/2000/svg" viewBox="0 0 64 64" fill="none">
  <rect width="64" height="64" rx="14" fill="#0A0D12"/>
  <path d="M32 16C23.2 16 16 23.2 16 32s7.2 16 16 16 16-7.2 16-16-7.2-16-16-16zm0 28.8c-7.1 0-12.8-5.7-12.8-12.8S24.9 19.2 32 19.2 44.8 24.9 44.8 32 39.1 44.8 32 44.8z" fill="#F8FAFC"/>
  <path d="M32 22.4c-5.3 0-9.6 4.3-9.6 9.6s4.3 9.6 9.6 9.6 9.6-4.3 9.6-9.6-4.3-9.6-9.6-9.6zm0 16c-3.5 0-6.4-2.9-6.4-6.4s2.9-6.4 6.4-6.4 6.4 2.9 6.4 6.4-2.9 6.4-6.4 6.4z" fill="#F8FAFC" opacity="0.6"/>
  <circle cx="32" cy="32" r="3.2" fill="#F8FAFC"/>
</svg>
